<svg width="51" height="54" viewBox="0 0 51 54" fill="none" xmlns="http://www.w3.org/2000/svg">
<path d="M50.1192 31.9123L28.5744 10.0546L25.1802 22.3679H35.5868L21.5048 44.7156L15.8789 53.644L24.5247 47.7796L29.5017 52.8289C30.6771 54.0214 32.5829 54.0214 33.7586 52.8289L37.6285 48.9028L40.8399 52.1608C41.5239 52.8551 42.6335 52.8551 43.3176 52.1608L49.461 45.9282C50.145 45.2342 50.145 44.1085 49.461 43.4145L46.2496 40.1565L50.1195 36.2304C51.2949 35.0385 51.2949 33.1048 50.1192 31.9123ZM47.6421 34.4098L31.9638 50.3158C31.7289 50.5541 31.3483 50.5541 31.1134 50.3158L26.192 45.3229C25.9572 45.0847 25.9572 44.6985 26.192 44.4602L41.8703 28.5542C42.1052 28.316 42.4858 28.316 42.7207 28.5542L47.6421 33.5471C47.8769 33.7853 47.8769 34.1715 47.6421 34.4098Z" fill="#ff7637"/>
<path d="M50.1192 31.9123L43.7073 25.4072C39.9802 25.9255 36.4492 26.2001 33.1211 26.2812L21.5048 44.7159L15.8789 53.644L24.5247 47.7796L29.5017 52.8289C30.6771 54.0214 32.5829 54.0214 33.7586 52.8289L37.6285 48.9028L40.8399 52.1608C41.5239 52.8551 42.6335 52.8551 43.3176 52.1608L49.461 45.9282C50.145 45.2342 50.145 44.1085 49.461 43.4145L46.2496 40.1565L50.1195 36.2304C51.2949 35.0385 51.2949 33.1048 50.1192 31.9123ZM47.6421 34.4098L31.9638 50.3158C31.7289 50.5541 31.3483 50.5541 31.1134 50.3158L26.192 45.3229C25.9572 45.0847 25.9572 44.6985 26.192 44.4602L41.8703 28.5542C42.1052 28.316 42.4858 28.316 42.7207 28.5542L47.6421 33.5471C47.8769 33.7853 47.8769 34.1715 47.6421 34.4098Z" fill="#ff7637"/>
<path d="M31.7559 0L24.3742 4.30834L21.499 1.39137C20.3236 0.198899 18.4178 0.198899 17.2421 1.39137L13.3723 5.31747L10.1609 2.05945C9.4768 1.36514 8.36725 1.36514 7.68318 2.05945L1.54006 8.29209C0.855993 8.9861 0.855993 10.1118 1.54006 10.8058L4.75144 14.0638L0.881551 17.9899C-0.29385 19.1824 -0.29385 21.1158 0.881551 22.3086L20.2665 41.9751L25.2489 27.5708H15.2834L27.3676 7.3458L31.7559 0Z" fill="#1B283A"/>
<path d="M20.2682 41.9748L25.2507 27.5705H15.2852L17.289 24.2167C9.60545 22.8284 3.8836 20.5588 0.307184 18.8145C-0.23857 19.9529 -0.0485315 21.3629 0.88361 22.3083L20.2682 41.9748Z" fill="#03080F"/>
</svg>
