<?xml version="1.0" encoding="UTF-8" standalone="no"?>
<!-- Created with Inkscape (http://www.inkscape.org/) -->

<svg
   version="1.1"
   id="svg2"
   width="907.66669"
   height="181.86667"
   viewBox="0 0 907.66669 181.86667"
   sodipodi:docname="exide-logo.eps"
   xmlns:inkscape="http://www.inkscape.org/namespaces/inkscape"
   xmlns:sodipodi="http://sodipodi.sourceforge.net/DTD/sodipodi-0.dtd"
   xmlns="http://www.w3.org/2000/svg"
   xmlns:svg="http://www.w3.org/2000/svg">
  <defs
     id="defs6" />
  <sodipodi:namedview
     id="namedview4"
     pagecolor="#ffffff"
     bordercolor="#000000"
     borderopacity="0.25"
     inkscape:showpageshadow="2"
     inkscape:pageopacity="0.0"
     inkscape:pagecheckerboard="0"
     inkscape:deskcolor="#d1d1d1" />
  <g
     id="g8"
     inkscape:groupmode="layer"
     inkscape:label="ink_ext_XXXXXX"
     transform="matrix(1.3333333,0,0,-1.3333333,0,181.86667)">
    <g
       id="g10"
       transform="scale(0.1)">
      <path
         d="m 2696.48,1311.19 h 477.11 l 132.93,-307.78 132.94,307.78 h 477.11 L 3597.89,661.074 3949.35,0.101563 H 3457.68 L 3306.52,326.02 3155.38,0.101563 H 2667.35 L 3035.2,662.93 2696.48,1311.19"
         style="fill:#ed1c24;fill-opacity:1;fill-rule:evenodd;stroke:none"
         id="path12" />
      <path
         d="M 4007.85,1311.19 H 4455.6 V 0.101563 H 4007.63 V 894.141 l 1.81,0.019 h -105.62 l 104.03,417.03"
         style="fill:#ed1c24;fill-opacity:1;fill-rule:evenodd;stroke:none"
         id="path14" />
      <path
         d="m 6454.26,1363.96 h 353.28 l -18.21,-54.63 h 0.22 L 6674.6,903.301 h -371.48 v -80.137 l 475.82,0.762 -95.23,-350.41 h -380.59 v -78.301 h 482.57 L 6674.6,0.101563 5856.96,0.0585938 V 894.16 h -105.61 l 105.61,415.17 h 571.81 l 25.49,54.63"
         style="fill:#ed1c24;fill-opacity:1;fill-rule:evenodd;stroke:none"
         id="path16" />
      <path
         d="m 2297.42,1363.96 h 353.28 l -18.22,-54.63 h 0.23 L 2517.76,903.301 h -371.49 v -80.137 l 473.65,-0.371 -93.05,-349.277 h -380.6 v -78.301 h 482.58 L 2517.76,0.101563 1700.12,0.0585938 V 894.16 h -105.61 l 105.61,415.17 h 571.81 l 25.49,54.63"
         style="fill:#ed1c24;fill-opacity:1;fill-rule:evenodd;stroke:none"
         id="path18" />
      <path
         d="M 0,679.824 C 0,1051.71 301.484,1353.2 673.391,1353.2 1045.29,1353.2 1346.77,1051.71 1346.77,679.824 1346.77,307.91 1045.29,6.42969 673.391,6.42969 301.484,6.42969 0,307.91 0,679.824"
         style="fill:#254aa5;fill-opacity:1;fill-rule:evenodd;stroke:none"
         id="path20" />
      <path
         d="m 140.984,267.578 4.161,-5.348 5.16,-6.351 5.55,-6.738 5.551,-6.352 6.742,-7.93 7.536,-8.339 9.515,-9.899 8.332,-8.73 7.532,-7.539 7.929,-7.93 5.156,-4.742 -0.066,0.191 127.41,385.957 232.336,-288.539 179.867,520.883 213.606,-299.785 209.159,621.223 -0.21,0.34 -9.52,9.51 -11.1,11.89 -10.32,10.31 -9.51,9.52 -8.73,7.93 -7.93,7.94 -7.14,5.55 -3.17,2.38 L 978.539,817.402 738.711,1120.93 577.578,600.059 345.242,892.363 141.625,268.93 l -0.641,-1.352"
         style="fill:#ffffff;fill-opacity:1;fill-rule:evenodd;stroke:none"
         id="path22" />
      <path
         d="m 140.984,267.578 4.161,-5.348 5.16,-6.351 5.55,-6.738 5.551,-6.352 6.742,-7.93 7.536,-8.339 9.515,-9.899 8.332,-8.73 7.532,-7.539 7.929,-7.93 5.156,-4.742 -0.066,0.191 127.41,385.957 232.336,-288.539 179.867,520.883 213.606,-299.785 209.159,621.223 -0.21,0.34 -9.52,9.51 -11.1,11.89 -10.32,10.31 -9.51,9.52 -8.73,7.93 -7.93,7.94 -7.14,5.55 -3.17,2.38 L 978.539,817.402 738.711,1120.93 577.578,600.059 345.242,892.363 141.625,268.93 Z"
         style="fill:none;stroke:#ffffff;stroke-width:12.81;stroke-linecap:butt;stroke-linejoin:miter;stroke-miterlimit:3.86371;stroke-dasharray:none;stroke-opacity:1"
         id="path24" />
      <path
         d="m 5045.61,895.059 c 33.48,0.332 63.93,0.058 96.51,-2.715 241.79,-20.684 244.34,-457.793 0,-500.781 -30.63,-5.391 -65.42,-1.915 -96.51,-1.778 z M 5124.43,0 h -495.44 l -2.22,894.141 h -103.8 L 4627,1308 c 134.28,0.02 59.68,-0.33 -0.23,-0.48 h 492.24 C 5458.93,1290.7 5726.78,999.156 5726.78,653.379 5726.78,308.891 5461.34,16.8203 5124.43,0"
         style="fill:#ed1c24;fill-opacity:1;fill-rule:evenodd;stroke:none"
         id="path26" />
    </g>
  </g>
</svg>
