<svg width="20" height="20" viewBox="0 0 20 20" fill="none" xmlns="http://www.w3.org/2000/svg">
<g clip-path="url(#clip0_55_2402)">
<path d="M12.5287 1.9194C10.7225 2.5769 9.58125 4.2719 9.71062 6.1269L9.75438 6.84252L9.03188 6.75502C6.4025 6.4194 4.10437 5.28002 2.15313 3.36565L1.19938 2.41627L0.95375 3.11752C0.43375 4.68065 0.76625 6.3319 1.84938 7.44252C2.4275 8.05627 2.29688 8.14377 1.30063 7.77815C0.95375 7.6619 0.65 7.57377 0.62125 7.61752C0.520625 7.72002 0.866875 9.0494 1.14125 9.57565C1.51688 10.3069 2.2825 11.0219 3.12125 11.4463L3.82937 11.7819L2.99125 11.7963C2.1825 11.7963 2.15313 11.8106 2.24 12.1181C2.52875 13.0675 3.67063 14.0763 4.94187 14.5144L5.8375 14.8206L5.0575 15.2881C3.90188 15.9613 2.54312 16.3406 1.18438 16.3688C0.534375 16.3831 0 16.4419 0 16.4863C0 16.6319 1.76312 17.4494 2.78875 17.7719C5.86688 18.7213 9.52312 18.3119 12.2687 16.6906C14.22 15.5363 16.17 13.2425 17.0812 11.0213C17.5731 9.83877 18.0638 7.67565 18.0638 6.6394C18.0638 5.9669 18.1075 5.8794 18.9163 5.07627C19.3938 4.60877 19.8412 4.09752 19.9281 3.95127C20.0731 3.67315 20.0575 3.67315 19.3212 3.9219C18.0931 4.36065 17.9194 4.3019 18.5269 3.6444C18.9744 3.1769 19.5094 2.3294 19.5094 2.08127C19.5094 2.03752 19.2931 2.11002 19.0469 2.2419C18.7869 2.3869 18.2087 2.60627 17.775 2.73752L16.995 2.98627L16.2869 2.50377C15.8962 2.24127 15.3481 1.94877 15.0588 1.86127C14.3212 1.6569 13.1937 1.68565 12.5287 1.9194Z" fill="black"/>
</g>
<defs>
<clipPath id="clip0_55_2402">
<rect width="20" height="20" fill="white"/>
</clipPath>
</defs>
</svg>
