<svg width="18" height="18" viewBox="0 0 18 18" fill="none" xmlns="http://www.w3.org/2000/svg">
<g clip-path="url(#clip0_55_2407)">
<path d="M9.00131 4.37891C6.44906 4.37891 4.38281 6.44741 4.38281 8.99741C4.38281 11.5497 6.45131 13.6159 9.00131 13.6159C11.5536 13.6159 13.6198 11.5474 13.6198 8.99741C13.6198 6.44516 11.5513 4.37891 9.00131 4.37891ZM9.00131 11.9952C7.34456 11.9952 6.00356 10.6534 6.00356 8.99741C6.00356 7.34141 7.34531 5.99966 9.00131 5.99966C10.6573 5.99966 11.9991 7.34141 11.9991 8.99741C11.9998 10.6534 10.6581 11.9952 9.00131 11.9952Z" fill="#1B283A"/>
<path d="M12.7112 0.0575166C11.0552 -0.0197334 6.95342 -0.0159834 5.29592 0.0575166C3.83942 0.125767 2.55467 0.477516 1.51892 1.51327C-0.21208 3.24427 0.00917045 5.57677 0.00917045 8.99752C0.00917045 12.4985 -0.18583 14.777 1.51892 16.4818C3.25667 18.2188 5.62292 17.9915 9.00317 17.9915C12.4712 17.9915 13.6682 17.9938 14.8944 17.519C16.5617 16.8718 17.8202 15.3815 17.9432 12.7048C18.0212 11.048 18.0167 6.94702 17.9432 5.28952C17.7947 2.12977 16.0989 0.213517 12.7112 0.0575166ZM15.3324 15.3365C14.1977 16.4713 12.6234 16.37 8.98142 16.37C5.23142 16.37 3.72767 16.4255 2.63042 15.3253C1.36667 14.0675 1.59542 12.0478 1.59542 8.98552C1.59542 4.84177 1.17017 1.85752 5.32892 1.64452C6.28442 1.61077 6.56567 1.59952 8.97092 1.59952L9.00467 1.62202C13.0014 1.62202 16.1372 1.20352 16.3254 5.36152C16.3682 6.31027 16.3779 6.59527 16.3779 8.99677C16.3772 12.7033 16.4477 14.216 15.3324 15.3365Z" fill="#1B283A"/>
<path d="M13.8058 5.27569C14.4019 5.27569 14.8851 4.79249 14.8851 4.19644C14.8851 3.60038 14.4019 3.11719 13.8058 3.11719C13.2098 3.11719 12.7266 3.60038 12.7266 4.19644C12.7266 4.79249 13.2098 5.27569 13.8058 5.27569Z" fill="#1B283A"/>
</g>
<defs>
<clipPath id="clip0_55_2407">
<rect width="18" height="18" fill="white"/>
</clipPath>
</defs>
</svg>
