<svg width="22" height="22" viewBox="0 0 22 22" fill="none" xmlns="http://www.w3.org/2000/svg">
<path d="M8.88609 12.1437C8.82009 12.1437 7.36809 12.1437 6.70809 12.1437C6.35609 12.1437 6.24609 12.0117 6.24609 11.6817C6.24609 10.8017 6.24609 9.89968 6.24609 9.01968C6.24609 8.66768 6.37809 8.55768 6.70809 8.55768H8.88609C8.88609 8.49168 8.88609 7.21568 8.88609 6.62168C8.88609 5.74168 9.04009 4.90568 9.48009 4.13568C9.94209 3.34368 10.6021 2.81568 11.4381 2.50768C11.9881 2.30968 12.5381 2.22168 13.1321 2.22168H15.2881C15.5961 2.22168 15.7281 2.35368 15.7281 2.66168V5.16968C15.7281 5.47768 15.5961 5.60968 15.2881 5.60968C14.6941 5.60968 14.1001 5.60968 13.5061 5.63168C12.9121 5.63168 12.6041 5.91768 12.6041 6.53368C12.5821 7.19368 12.6041 7.83168 12.6041 8.51368H15.1561C15.5081 8.51368 15.6401 8.64568 15.6401 8.99768V11.6597C15.6401 12.0117 15.5301 12.1217 15.1561 12.1217C14.3641 12.1217 12.6701 12.1217 12.6041 12.1217V19.2937C12.6041 19.6677 12.4941 19.7997 12.0981 19.7997C11.1741 19.7997 10.2721 19.7997 9.34809 19.7997C9.01809 19.7997 8.88609 19.6677 8.88609 19.3377C8.88609 17.0277 8.88609 12.2097 8.88609 12.1437Z" fill="#1B283A"/>
</svg>
