<svg width="28" height="38" viewBox="0 0 28 38" fill="none" xmlns="http://www.w3.org/2000/svg">
<path d="M13.9988 0.658691C6.80967 0.658691 0.960938 6.59237 0.960938 13.8858C0.960938 22.9372 12.6285 36.2252 13.1253 36.7864C13.5919 37.3137 14.4065 37.3127 14.8723 36.7864C15.369 36.2252 27.0366 22.9372 27.0366 13.8858C27.0365 6.59237 21.1878 0.658691 13.9988 0.658691ZM13.9988 20.5407C10.3818 20.5407 7.43918 17.5554 7.43918 13.8858C7.43918 10.2163 10.3818 7.23095 13.9988 7.23095C17.6157 7.23095 20.5583 10.2163 20.5583 13.8859C20.5583 17.5554 17.6157 20.5407 13.9988 20.5407Z" fill="white"/>
</svg>
