<svg width="46" height="46" viewBox="0 0 46 46" fill="none" xmlns="http://www.w3.org/2000/svg">
<g clip-path="url(#clip0_55_2608)">
<path d="M34.3782 45.9998C31.5383 45.6837 29.0074 44.9941 26.6472 43.8449C14.6757 38.0161 5.8836 29.1743 1.07502 16.6414C0.54351 15.2584 0.290225 13.7567 0.0331023 12.2875C-0.062839 11.7378 0.0542093 11.0424 0.326683 10.5559C2.41436 6.8514 5.07961 3.61426 8.35505 0.882797C10.1875 -0.645747 11.8435 -0.0174733 12.8048 1.45169C14.7927 4.48771 16.7173 7.57545 18.4442 10.7628C19.6627 13.0135 19.3326 13.8869 17.4407 15.6108C17.2047 15.8254 16.961 16.0342 16.7154 16.2372C14.9481 17.693 14.927 17.7006 15.9267 19.7885C18.3636 24.8779 22.2109 28.4675 27.4531 30.586C28.1228 30.8561 28.5334 30.7833 28.9805 30.1971C29.5984 29.3869 30.3102 28.6456 31.0068 27.8986C31.9259 26.9121 33.0369 26.5578 34.2976 27.1496C35.9113 27.9062 37.5404 28.6514 39.0774 29.5459C40.8695 30.5879 42.5888 31.7583 44.3042 32.9248C45.8297 33.961 46.8217 35.6562 45.0737 37.7C42.3451 40.8893 39.156 43.5077 35.5218 45.5956C35.1227 45.8255 34.6391 45.9117 34.3782 46.0017V45.9998ZM10.2931 3.17178C7.52995 5.63699 5.24463 8.33206 3.31238 11.3221C3.13201 11.5998 3.06485 12.0653 3.15311 12.3852C3.68655 14.2796 4.10101 16.2353 4.88581 18.0243C7.99623 25.1039 12.9161 30.7909 18.9278 35.5681C23.0091 38.8129 27.4493 41.395 32.5917 42.6324C33.7258 42.9063 34.6813 42.8737 35.5947 42.0692C36.2874 41.4601 37.1182 41.0061 37.8129 40.3989C39.5302 38.8991 41.2034 37.3495 42.9093 35.8076C41.2149 34.2694 35.5007 30.7814 33.6586 30.1857C33.4092 30.1052 32.9506 30.3121 32.7395 30.5324C31.8319 31.4748 30.9818 32.4708 30.1107 33.4477C29.537 34.0894 28.8635 34.2388 28.0345 33.9725C19.939 31.3732 14.5951 26.0425 11.9893 17.963C11.7226 17.1375 11.8684 16.4632 12.5131 15.8905C13.5128 14.9979 14.5317 14.1225 15.4988 13.1954C15.6965 13.0058 15.8788 12.5442 15.7828 12.3392C14.2938 9.12315 12.4959 6.08904 10.2911 3.1737L10.2931 3.17178Z" fill="white"/>
<path d="M41.4623 21.3899C41.2033 12.0348 34.0557 4.8173 24.6055 4.55297C24.6055 3.58757 24.6055 2.61834 24.6055 1.64912C34.3473 1.12428 44.6227 9.8818 44.4365 21.3899H41.4623Z" fill="#FF7637"/>
<path d="M24.6055 9.22691C31.6284 9.17328 36.9761 15.2587 36.7497 21.3959H33.835C33.2997 15.1917 28.8576 12.3874 24.6055 12.2131V9.22691Z" fill="#FF7637"/>
</g>
<defs>
<clipPath id="clip0_55_2608">
<rect width="46" height="46" fill="white"/>
</clipPath>
</defs>
</svg>
