<svg width="24" height="24" viewBox="0 0 24 24" fill="none" xmlns="http://www.w3.org/2000/svg">
<g clip-path="url(#clip0_55_2249)">
<path d="M13.926 11.6638H10.9062L11.4879 16.2019C11.4881 16.203 11.4881 16.2042 11.4882 16.2053H13.926V11.6638H13.926Z" fill="#1B283A"/>
<path d="M18.3468 11.6638H15.332V16.2053H17.7696C17.7698 16.2036 17.7698 16.202 17.77 16.2004L18.3468 11.6638Z" fill="#1B283A"/>
<path d="M20.5241 5.70421L19.9453 10.2568H23.3112L23.9589 7.45208C24.1761 6.62727 23.4809 5.69901 22.5804 5.71167L20.5242 5.70337C20.5242 5.70365 20.5242 5.70393 20.5241 5.70421Z" fill="#1B283A"/>
<path d="M13.9258 5.67686L10.1367 5.66162L10.7258 10.2569H13.9258V5.67686Z" fill="#1B283A"/>
<path d="M19.7649 11.6638L19.1875 16.2053H20.5394C21.3617 16.2053 22.0652 15.6457 22.2502 14.8446L22.9847 11.6638H19.7649Z" fill="#1B283A"/>
<path d="M10.07 16.2053L9.48783 11.6638H6.0109L6.85503 14.7957C6.29217 14.8161 5.76789 15.045 5.37033 15.4484C4.9526 15.8723 4.72826 16.4335 4.73862 17.0285C4.75935 18.2185 5.74454 19.1867 6.9348 19.1867H7.96046C7.808 19.5067 7.72242 19.8644 7.72242 20.2418C7.72242 21.5994 8.82686 22.7039 10.1844 22.7039C11.542 22.7039 12.6464 21.5994 12.6464 20.2418C12.6464 19.8644 12.5608 19.5067 12.4084 19.1867H16.85C16.6976 19.5066 16.6121 19.8642 16.6121 20.2415C16.6121 21.599 17.7165 22.7035 19.0741 22.7035C20.4316 22.7035 21.5361 21.599 21.5361 20.2415C21.5361 19.8495 21.4436 19.4788 21.2799 19.1496C21.5583 19.0558 21.759 18.7933 21.759 18.4833C21.759 18.0949 21.444 17.7799 21.0556 17.7799C17.6513 17.7799 10.2998 17.7799 6.93475 17.7799C5.88489 17.7261 5.90684 16.2488 6.93705 16.2005L10.07 16.2053Z" fill="#1B283A"/>
<path d="M15.332 5.68262V10.257H18.5256L19.1052 5.69786L15.332 5.68262Z" fill="#1B283A"/>
<path d="M3.65578 2.91849L4.00772 4.22433H5.46471L5.01387 2.55164C4.81378 1.81255 4.13931 1.29639 3.37363 1.29639H0.703405C0.314938 1.29639 0 1.61132 0 1.99979C0 2.38826 0.314938 2.7032 0.703405 2.7032H3.37363C3.50544 2.70315 3.62155 2.79201 3.65578 2.91849Z" fill="#1B283A"/>
<path d="M8.72052 5.66094C8.72043 5.66019 8.72038 5.65944 8.72033 5.65869H4.39453C4.55744 6.26343 5.45367 9.5882 5.63388 10.2569H9.30965L8.72052 5.66094Z" fill="#1B283A"/>
</g>
<defs>
<clipPath id="clip0_55_2249">
<rect width="24" height="24" fill="white"/>
</clipPath>
</defs>
</svg>
