<svg width="28" height="28" viewBox="0 0 28 28" fill="none" xmlns="http://www.w3.org/2000/svg">
<path d="M7.29501 0.627622C8.69067 0.586775 9.7994 1.04581 10.7305 1.94638C11.2204 2.42098 11.7084 2.89752 12.1769 3.39351C13.9591 5.2744 13.9532 8.08892 12.173 9.98147C11.2933 10.9164 11.3128 11.8429 12.2316 12.761C13.4047 13.93 14.5739 15.1028 15.7529 16.2679C16.5493 17.0557 16.9397 17.0576 17.7127 16.3127C20.2035 13.9163 22.741 13.965 25.2298 16.3788C26.5533 17.6606 27.7342 18.9871 27.4765 20.9808C27.3789 21.7297 27.2052 22.5641 26.7816 23.1593C24.5876 26.2481 21.605 27.7361 17.744 27.419C10.2659 26.8063 2.32917 19.631 0.81443 11.7846C0.0433969 7.78548 1.07404 4.41662 4.25968 1.77716C5.1654 1.02636 6.18238 0.578995 7.29306 0.627622H7.29501ZM3.48474 9.34154C3.4984 9.56717 3.50036 9.79669 3.52573 10.0204C4.23625 16.3185 9.99264 22.7586 16.2156 24.2077C18.6497 24.7737 20.9979 24.7893 23.0085 22.9979C24.8609 21.3465 25.4016 20.4012 23.0904 18.3822C22.944 18.2539 22.8191 18.1021 22.6708 17.9777C21.9153 17.3494 20.9374 17.3513 20.1839 17.9893C19.936 18.1974 19.7213 18.4445 19.4851 18.6682C17.8884 20.1814 15.6397 20.2106 14.0489 18.6818C12.458 17.151 10.9062 15.5774 9.35435 14.0058C8.58722 13.2297 8.25929 12.2767 8.29052 11.1796C8.3237 9.99119 8.89368 9.1023 9.71937 8.30676C10.6075 7.45093 10.791 6.62622 10.3479 5.80346C9.61787 4.44385 7.97625 3.3585 6.96707 3.58997C6.75236 3.63859 6.52983 3.73974 6.35806 3.87395C4.59347 5.27245 3.4496 7.00162 3.48474 9.34543V9.34154Z" fill="#FF7637"/>
</svg>
